<mxfile host="app.diagrams.net" agent="Mozilla/5.0 (X11; Ubuntu; Linux x86_64; rv:132.0) Gecko/20100101 Firefox/132.0" version="24.8.3">
  <diagram name="Page-1" id="YdPZHFRRSF3DGQ6JKQBy">
    <mxGraphModel dx="1195" dy="654" grid="1" gridSize="10" guides="1" tooltips="1" connect="1" arrows="1" fold="1" page="1" pageScale="1" pageWidth="850" pageHeight="1100" math="0" shadow="0">
      <root>
        <mxCell id="0" />
        <mxCell id="1" parent="0" />
        <mxCell id="DUXSZUELFcIUZ8R_S4-L-1" value="" style="rounded=1;whiteSpace=wrap;html=1;fillColor=#d5e8d4;strokeColor=#82b366;" vertex="1" parent="1">
          <mxGeometry x="120" y="240" width="630" height="280" as="geometry" />
        </mxCell>
        <mxCell id="DUXSZUELFcIUZ8R_S4-L-10" value="" style="edgeStyle=orthogonalEdgeStyle;rounded=0;orthogonalLoop=1;jettySize=auto;html=1;" edge="1" parent="1" source="DUXSZUELFcIUZ8R_S4-L-2" target="DUXSZUELFcIUZ8R_S4-L-6">
          <mxGeometry relative="1" as="geometry" />
        </mxCell>
        <mxCell id="DUXSZUELFcIUZ8R_S4-L-2" value="m[0]" style="rounded=0;whiteSpace=wrap;html=1;fillColor=#ffe6cc;strokeColor=#d79b00;" vertex="1" parent="1">
          <mxGeometry x="200" y="260" width="120" height="60" as="geometry" />
        </mxCell>
        <mxCell id="DUXSZUELFcIUZ8R_S4-L-15" value="" style="edgeStyle=orthogonalEdgeStyle;rounded=0;orthogonalLoop=1;jettySize=auto;html=1;" edge="1" parent="1" source="DUXSZUELFcIUZ8R_S4-L-3" target="DUXSZUELFcIUZ8R_S4-L-11">
          <mxGeometry relative="1" as="geometry" />
        </mxCell>
        <mxCell id="DUXSZUELFcIUZ8R_S4-L-3" value="m[1]" style="rounded=0;whiteSpace=wrap;html=1;fillColor=#ffe6cc;strokeColor=#d79b00;" vertex="1" parent="1">
          <mxGeometry x="320" y="260" width="120" height="60" as="geometry" />
        </mxCell>
        <mxCell id="DUXSZUELFcIUZ8R_S4-L-18" value="" style="edgeStyle=orthogonalEdgeStyle;rounded=0;orthogonalLoop=1;jettySize=auto;html=1;" edge="1" parent="1" source="DUXSZUELFcIUZ8R_S4-L-4" target="DUXSZUELFcIUZ8R_S4-L-12">
          <mxGeometry relative="1" as="geometry" />
        </mxCell>
        <mxCell id="DUXSZUELFcIUZ8R_S4-L-4" value="m[2]" style="rounded=0;whiteSpace=wrap;html=1;fillColor=#ffe6cc;strokeColor=#d79b00;" vertex="1" parent="1">
          <mxGeometry x="440" y="260" width="120" height="60" as="geometry" />
        </mxCell>
        <mxCell id="DUXSZUELFcIUZ8R_S4-L-21" value="" style="edgeStyle=orthogonalEdgeStyle;rounded=0;orthogonalLoop=1;jettySize=auto;html=1;" edge="1" parent="1" source="DUXSZUELFcIUZ8R_S4-L-5" target="DUXSZUELFcIUZ8R_S4-L-13">
          <mxGeometry relative="1" as="geometry" />
        </mxCell>
        <mxCell id="DUXSZUELFcIUZ8R_S4-L-5" value="m[4]" style="rounded=0;whiteSpace=wrap;html=1;fillColor=#ffe6cc;strokeColor=#d79b00;" vertex="1" parent="1">
          <mxGeometry x="560" y="260" width="120" height="60" as="geometry" />
        </mxCell>
        <mxCell id="DUXSZUELFcIUZ8R_S4-L-6" value="F(k, .)" style="rounded=0;whiteSpace=wrap;html=1;fillColor=#e1d5e7;strokeColor=#9673a6;" vertex="1" parent="1">
          <mxGeometry x="225" y="400" width="70" height="60" as="geometry" />
        </mxCell>
        <mxCell id="DUXSZUELFcIUZ8R_S4-L-7" value="F(k, .)" style="rounded=0;whiteSpace=wrap;html=1;fillColor=#e1d5e7;strokeColor=#9673a6;" vertex="1" parent="1">
          <mxGeometry x="345" y="400" width="70" height="60" as="geometry" />
        </mxCell>
        <mxCell id="DUXSZUELFcIUZ8R_S4-L-8" value="F(k, .)" style="rounded=0;whiteSpace=wrap;html=1;fillColor=#e1d5e7;strokeColor=#9673a6;" vertex="1" parent="1">
          <mxGeometry x="465" y="400" width="70" height="60" as="geometry" />
        </mxCell>
        <mxCell id="DUXSZUELFcIUZ8R_S4-L-24" value="" style="edgeStyle=orthogonalEdgeStyle;rounded=0;orthogonalLoop=1;jettySize=auto;html=1;" edge="1" parent="1" source="DUXSZUELFcIUZ8R_S4-L-9" target="DUXSZUELFcIUZ8R_S4-L-23">
          <mxGeometry relative="1" as="geometry" />
        </mxCell>
        <mxCell id="DUXSZUELFcIUZ8R_S4-L-9" value="F(k, .)" style="rounded=0;whiteSpace=wrap;html=1;fillColor=#e1d5e7;strokeColor=#9673a6;" vertex="1" parent="1">
          <mxGeometry x="585" y="400" width="70" height="60" as="geometry" />
        </mxCell>
        <mxCell id="DUXSZUELFcIUZ8R_S4-L-16" value="" style="edgeStyle=orthogonalEdgeStyle;rounded=0;orthogonalLoop=1;jettySize=auto;html=1;" edge="1" parent="1" source="DUXSZUELFcIUZ8R_S4-L-11" target="DUXSZUELFcIUZ8R_S4-L-7">
          <mxGeometry relative="1" as="geometry" />
        </mxCell>
        <mxCell id="DUXSZUELFcIUZ8R_S4-L-11" value="" style="shape=orEllipse;perimeter=ellipsePerimeter;whiteSpace=wrap;html=1;backgroundOutline=1;fillColor=#f8cecc;strokeColor=#b85450;" vertex="1" parent="1">
          <mxGeometry x="360" y="340" width="40" height="40" as="geometry" />
        </mxCell>
        <mxCell id="DUXSZUELFcIUZ8R_S4-L-19" value="" style="edgeStyle=orthogonalEdgeStyle;rounded=0;orthogonalLoop=1;jettySize=auto;html=1;" edge="1" parent="1" source="DUXSZUELFcIUZ8R_S4-L-12" target="DUXSZUELFcIUZ8R_S4-L-8">
          <mxGeometry relative="1" as="geometry" />
        </mxCell>
        <mxCell id="DUXSZUELFcIUZ8R_S4-L-12" value="" style="shape=orEllipse;perimeter=ellipsePerimeter;whiteSpace=wrap;html=1;backgroundOutline=1;fillColor=#f8cecc;strokeColor=#b85450;" vertex="1" parent="1">
          <mxGeometry x="480" y="340" width="40" height="40" as="geometry" />
        </mxCell>
        <mxCell id="DUXSZUELFcIUZ8R_S4-L-22" value="" style="edgeStyle=orthogonalEdgeStyle;rounded=0;orthogonalLoop=1;jettySize=auto;html=1;" edge="1" parent="1" source="DUXSZUELFcIUZ8R_S4-L-13" target="DUXSZUELFcIUZ8R_S4-L-9">
          <mxGeometry relative="1" as="geometry" />
        </mxCell>
        <mxCell id="DUXSZUELFcIUZ8R_S4-L-13" value="" style="shape=orEllipse;perimeter=ellipsePerimeter;whiteSpace=wrap;html=1;backgroundOutline=1;fillColor=#f8cecc;strokeColor=#b85450;" vertex="1" parent="1">
          <mxGeometry x="600" y="340" width="40" height="40" as="geometry" />
        </mxCell>
        <mxCell id="DUXSZUELFcIUZ8R_S4-L-14" value="" style="endArrow=classic;html=1;rounded=0;exitX=0.5;exitY=1;exitDx=0;exitDy=0;entryX=0;entryY=0.5;entryDx=0;entryDy=0;" edge="1" parent="1" source="DUXSZUELFcIUZ8R_S4-L-6" target="DUXSZUELFcIUZ8R_S4-L-11">
          <mxGeometry width="50" height="50" relative="1" as="geometry">
            <mxPoint x="400" y="430" as="sourcePoint" />
            <mxPoint x="450" y="380" as="targetPoint" />
            <Array as="points">
              <mxPoint x="260" y="490" />
              <mxPoint x="310" y="490" />
              <mxPoint x="310" y="360" />
            </Array>
          </mxGeometry>
        </mxCell>
        <mxCell id="DUXSZUELFcIUZ8R_S4-L-17" value="" style="endArrow=classic;html=1;rounded=0;exitX=0.5;exitY=1;exitDx=0;exitDy=0;entryX=0;entryY=0.5;entryDx=0;entryDy=0;" edge="1" parent="1" source="DUXSZUELFcIUZ8R_S4-L-7" target="DUXSZUELFcIUZ8R_S4-L-12">
          <mxGeometry width="50" height="50" relative="1" as="geometry">
            <mxPoint x="400" y="430" as="sourcePoint" />
            <mxPoint x="450" y="380" as="targetPoint" />
            <Array as="points">
              <mxPoint x="380" y="490" />
              <mxPoint x="430" y="490" />
              <mxPoint x="430" y="360" />
            </Array>
          </mxGeometry>
        </mxCell>
        <mxCell id="DUXSZUELFcIUZ8R_S4-L-20" value="" style="endArrow=classic;html=1;rounded=0;entryX=0;entryY=0.5;entryDx=0;entryDy=0;exitX=0.5;exitY=1;exitDx=0;exitDy=0;" edge="1" parent="1" source="DUXSZUELFcIUZ8R_S4-L-8" target="DUXSZUELFcIUZ8R_S4-L-13">
          <mxGeometry width="50" height="50" relative="1" as="geometry">
            <mxPoint x="400" y="430" as="sourcePoint" />
            <mxPoint x="450" y="380" as="targetPoint" />
            <Array as="points">
              <mxPoint x="500" y="490" />
              <mxPoint x="550" y="490" />
              <mxPoint x="550" y="360" />
            </Array>
          </mxGeometry>
        </mxCell>
        <mxCell id="DUXSZUELFcIUZ8R_S4-L-26" value="" style="edgeStyle=orthogonalEdgeStyle;rounded=0;orthogonalLoop=1;jettySize=auto;html=1;dashed=1;" edge="1" parent="1" source="DUXSZUELFcIUZ8R_S4-L-23" target="DUXSZUELFcIUZ8R_S4-L-25">
          <mxGeometry relative="1" as="geometry" />
        </mxCell>
        <mxCell id="DUXSZUELFcIUZ8R_S4-L-23" value="F(k1, .)" style="rounded=0;whiteSpace=wrap;html=1;fillColor=#dae8fc;strokeColor=#6c8ebf;" vertex="1" parent="1">
          <mxGeometry x="585" y="540" width="70" height="60" as="geometry" />
        </mxCell>
        <mxCell id="DUXSZUELFcIUZ8R_S4-L-25" value="TAG" style="rounded=1;whiteSpace=wrap;html=1;fillColor=#f8cecc;strokeColor=#b85450;dashed=1;" vertex="1" parent="1">
          <mxGeometry x="760" y="540" width="70" height="60" as="geometry" />
        </mxCell>
        <mxCell id="DUXSZUELFcIUZ8R_S4-L-27" value="Essential for security" style="text;html=1;align=center;verticalAlign=middle;whiteSpace=wrap;rounded=0;" vertex="1" parent="1">
          <mxGeometry x="420" y="610" width="100" height="30" as="geometry" />
        </mxCell>
        <mxCell id="DUXSZUELFcIUZ8R_S4-L-28" value="" style="endArrow=classic;html=1;rounded=0;entryX=0;entryY=0.5;entryDx=0;entryDy=0;exitX=1;exitY=0.5;exitDx=0;exitDy=0;dashed=1;" edge="1" parent="1" source="DUXSZUELFcIUZ8R_S4-L-27" target="DUXSZUELFcIUZ8R_S4-L-23">
          <mxGeometry width="50" height="50" relative="1" as="geometry">
            <mxPoint x="430" y="450" as="sourcePoint" />
            <mxPoint x="480" y="400" as="targetPoint" />
          </mxGeometry>
        </mxCell>
      </root>
    </mxGraphModel>
  </diagram>
</mxfile>
